<?xml version="1.0" encoding="utf-8"?>
<!-- Uploaded to: SVG Repo, www.svgrepo.com, Generator: SVG Repo Mixer Tools -->
<svg width="800px" height="800px" viewBox="0 -0.18 64 64" xmlns="http://www.w3.org/2000/svg">
  <g id="Group_127" data-name="Group 127" transform="translate(-52.725 -50.435)">
    <g id="XMLID_1_">
      <g id="Group_126" data-name="Group 126">
        <path id="Path_58" data-name="Path 58" d="M116.725,76v36.08a2,2,0,0,1-2,2h-60a2.006,2.006,0,0,1-2-2V68.755a2,2,0,0,1,2-2h1.67v-7.59a2.006,2.006,0,0,1,2-2h2v-4.73a2.006,2.006,0,0,1,2-2h49.03a2.006,2.006,0,0,1,2,2V74h1.3A1.993,1.993,0,0,1,116.725,76Zm-4,34.08V78H78.4a2.041,2.041,0,0,1-1.38-.55l-7.09-6.7H56.725v39.33ZM109.425,74V54.435H64.4v2.73h40.03a2.006,2.006,0,0,1,2,2V74Zm-7,0V61.165H60.4v5.59h10.33a2.013,2.013,0,0,1,1.38.54L79.2,74Z" fill="#03373d"/>
        <path id="Path_59" data-name="Path 59" d="M112.725,78v32.08h-56V70.755h13.21l7.09,6.7A2.041,2.041,0,0,0,78.4,78Zm-15,15.83a13,13,0,1,0-13,13A13.012,13.012,0,0,0,97.725,93.835Z" fill="#ccc"/>
        <path id="Path_60" data-name="Path 60" d="M109.425,54.435v19.57h-3V59.165a2.006,2.006,0,0,0-2-2H64.4v-2.73h45.03Z" fill="#ef472e"/>
        <path id="Path_61" data-name="Path 61" d="M102.425,61.165v12.84H79.2l-7.09-6.71a2.013,2.013,0,0,0-1.38-.54H60.4v-5.59h42.03Z" fill="#f2f2f2"/>
        <path id="Path_62" data-name="Path 62" d="M84.725,80.835a13,13,0,1,1-13,13A13.012,13.012,0,0,1,84.725,80.835Zm9,13a9,9,0,1,0-9,9A9.007,9.007,0,0,0,93.725,93.835Z" fill="#03373d"/>
        <path id="Path_63" data-name="Path 63" d="M90.915,91.345v4.97l-3.7.01v3.7h-4.97v-3.7h-3.7v-4.97l3.7-.01v-3.7h4.97v3.7Z" fill="#ef472e"/>
      </g>
    </g>
  </g>
</svg>